{
  "accessors": [
    {
      "bufferView": 0,
      "componentType": 5126,
      "count": 40,
      "type": "VEC3",
      "max": [
        0.5358486771583557,
        1.133810043334961,
        0.5306285619735718
      ],
      "min": [
        -0.49873465299606323,
        -0.049506209790706635,
        -0.5847441554069519
      ]
    },
    {
      "bufferView": 1,
      "componentType": 5126,
      "count": 40,
      "type": "VEC2",
      "max": [
        0.9702544808387756,
        0.9963736534118652
      ],
      "min": [
        0.00419219397008419,
        0.0036263170186430216
      ]
    },
    {
      "bufferView": 2,
      "componentType": 5125,
      "count": 60,
      "type": "SCALAR",
      "max": [
        39.0
      ],
      "min": [
        0.0
      ]
    }
  ],
  "asset": {
    "generator": "Plattar UnityGLTF (2019.2.17f1)",
    "version": "2.0"
  },
  "buffers": [
    {
      "uri": "Bush5.bin",
      "byteLength": 1040
    }
  ],
  "bufferViews": [
    {
      "buffer": 0,
      "byteLength": 480
    },
    {
      "buffer": 0,
      "byteOffset": 480,
      "byteLength": 320
    },
    {
      "buffer": 0,
      "byteOffset": 800,
      "byteLength": 240
    }
  ],
  "materials": [
    {
      "name": "bush5",
      "pbrMetallicRoughness": {
        "baseColorTexture": {
          "index": 0
        }
      }
    }
  ],
  "meshes": [
    {
      "primitives": [
        {
          "attributes": {
            "POSITION": 0,
            "TEXCOORD_0": 1
          },
          "indices": 2,
          "material": 0
        }
      ],
      "name": "Bush5"
    }
  ],
  "nodes": [
    {
      "mesh": 0,
      "rotation": [
        0.0,
        0.0,
        0.0,
        -1.0
      ],
      "translation": [
        0.0,
        0.0,
        0.0
      ],
      "name": "Bush5",
      "translation_orig": [
        98.4306259,
        22.5255547,
        -6.80234528
      ],
      "rotation_orig": [
        0.0,
        0.0,
        0.0,
        -1.0
      ]
    }
  ],
  "scene": 0,
  "scenes": [
    {
      "nodes": [
        0
      ],
      "name": "Bush5"
    }
  ],
  "images": [
    {
      "uri": "../textures/bush5.webp"
    }
  ],
  "textures": [
    {
      "source": 0
    }
  ]
}