{
  "accessors": [
    {
      "bufferView": 0,
      "componentType": 5126,
      "count": 222,
      "type": "VEC3",
      "max": [
        3.0513851642608643,
        3.051389455795288,
        2.9748847484588623
      ],
      "min": [
        -3.051389455795288,
        -3.051389455795288,
        -2.974884510040283
      ]
    },
    {
      "bufferView": 1,
      "componentType": 5126,
      "count": 222,
      "type": "VEC2",
      "max": [
        0.9917399883270264,
        0.995844304561615
      ],
      "min": [
        0.01675713062286377,
        -0.061566539108753204
      ]
    },
    {
      "bufferView": 2,
      "componentType": 5125,
      "count": 1092,
      "type": "SCALAR",
      "max": [
        221.0
      ],
      "min": [
        0.0
      ]
    }
  ],
  "asset": {
    "generator": "Plattar UnityGLTF (2019.2.17f1)",
    "version": "2.0"
  },
  "buffers": [
    {
      "uri": "orb.bin",
      "byteLength": 8808
    }
  ],
  "bufferViews": [
    {
      "buffer": 0,
      "byteLength": 2664
    },
    {
      "buffer": 0,
      "byteOffset": 2664,
      "byteLength": 1776
    },
    {
      "buffer": 0,
      "byteOffset": 4440,
      "byteLength": 4368
    }
  ],
  "materials": [
    {
      "alphaCutoff": 0.10000000149011612,
      "name": "orb",
      "pbrMetallicRoughness": {
        "baseColorTexture": {
          "index": 0
        }
      }
    }
  ],
  "meshes": [
    {
      "primitives": [
        {
          "attributes": {
            "POSITION": 0,
            "TEXCOORD_0": 1
          },
          "indices": 2,
          "material": 0
        }
      ],
      "name": "orb"
    }
  ],
  "nodes": [
    {
      "mesh": 0,
      "rotation": [
        0.0,
        0.0,
        0.0,
        -1.0
      ],
      "scale": [
        1.0,
        1.0,
        1.0
      ],
      "translation": [
        0.0,
        0.0,
        0.0
      ],
      "name": "orb",
      "translation_orig": [
        22.9279022,
        0.639277935,
        -8.499882
      ],
      "scale_orig": [
        0.342860639,
        0.3528605,
        0.3428606
      ],
      "rotation_orig": [
        -0.423160523,
        0.748459339,
        -0.387967348,
        -0.332001746
      ]
    }
  ],
  "scene": 0,
  "scenes": [
    {
      "nodes": [
        0
      ],
      "name": "orb"
    }
  ],
  "images": [
    {
      "uri": "../textures/orb.ktx2"
    }
  ],
  "textures": [
    {
      "source": 0
    }
  ]
}