{
  "accessors": [
    {
      "bufferView": 0,
      "componentType": 5126,
      "count": 515,
      "type": "VEC3",
      "max": [
        0.5,
        0.5,
        0.5
      ],
      "min": [
        -0.5,
        -0.5,
        -0.5
      ]
    },
    {
      "bufferView": 1,
      "componentType": 5126,
      "count": 515,
      "type": "VEC3",
      "max": [
        0.99997496604919434,
        1.0,
        0.9999769926071167
      ],
      "min": [
        -0.99997496604919434,
        -1.0,
        -0.99997353553771973
      ]
    },
    {
      "bufferView": 2,
      "componentType": 5126,
      "count": 515,
      "type": "VEC4",
      "max": [
        1.0,
        0.056131001561880112,
        1.0,
        1.0
      ],
      "min": [
        -1.0,
        -0.065983392298221588,
        -1.0,
        -1.0
      ]
    },
    {
      "bufferView": 3,
      "componentType": 5126,
      "count": 515,
      "type": "VEC2",
      "max": [
        0.99833369255065918,
        0.97589123249053955
      ],
      "min": [
        -0.00092136859893798828,
        0.017628978937864304
      ]
    },
    {
      "bufferView": 4,
      "componentType": 5126,
      "count": 515,
      "type": "VEC2",
      "max": [
        1.0000003576278687,
        0.65385353565216064
      ],
      "min": [
        0.0,
        0.0
      ]
    },
    {
      "bufferView": 5,
      "componentType": 5125,
      "count": 2304,
      "type": "SCALAR",
      "max": [
        514.0
      ],
      "min": [
        0.0
      ]
    }
  ],
  "asset": {
    "generator": "Plattar UnityGLTF (2019.2.17f1)",
    "version": "2.0"
  },
  "buffers": [
    {
      "uri": "Player.bin",
      "byteLength": 38056
    }
  ],
  "bufferViews": [
    {
      "buffer": 0,
      "byteLength": 6180
    },
    {
      "buffer": 0,
      "byteOffset": 6180,
      "byteLength": 6180
    },
    {
      "buffer": 0,
      "byteOffset": 12360,
      "byteLength": 8240
    },
    {
      "buffer": 0,
      "byteOffset": 20600,
      "byteLength": 4120
    },
    {
      "buffer": 0,
      "byteOffset": 24720,
      "byteLength": 4120
    },
    {
      "buffer": 0,
      "byteOffset": 28840,
      "byteLength": 9216
    }
  ],
  "materials": [
    {
      "name": "Default-Diffuse"
    }
  ],
  "meshes": [
    {
      "primitives": [
        {
          "attributes": {
            "POSITION": 0,
            "NORMAL": 1,
            "TANGENT": 2,
            "TEXCOORD_0": 3,
            "TEXCOORD_1": 4
          },
          "indices": 5,
          "material": 0
        }
      ],
      "name": "Player"
    }
  ],
  "nodes": [
    {
      "children": [
        1
      ],
      "mesh": 0,
      "rotation": [
        0.0,
        0.545408964,
        0.0,
        -0.8381701
      ],
      "scale": [
        4.373823,
        4.37382269,
        4.373823
      ],
      "name": "Player"
    },
    {
      "children": [
        2
      ],
      "rotation": [
        0.0,
        0.0,
        0.0,
        -1.0
      ],
      "scale": [
        0.293399245,
        0.313223541,
        0.313223541
      ],
      "name": "PlayerObject"
    },
    {
      "rotation": [
        0.0,
        0.0,
        0.0,
        -1.0
      ],
      "scale": [
        3.408325,
        3.192608,
        3.192608
      ],
      "name": "Camera"
    }
  ],
  "scene": 0,
  "scenes": [
    {
      "nodes": [
        0
      ],
      "name": "Player"
    }
  ]
}