{
  "accessors": [
    {
      "bufferView": 0,
      "componentType": 5126,
      "count": 298,
      "type": "VEC3",
      "max": [
        5.8863668441772461,
        4.6446628570556641,
        6.1692695617675781
      ],
      "min": [
        -4.8943471908569336,
        -1.403618335723877,
        -6.008265495300293
      ]
    },
    {
      "bufferView": 1,
      "componentType": 5126,
      "count": 298,
      "type": "VEC2",
      "max": [
        0.96464991569519043,
        0.97412073612213135
      ],
      "min": [
        0.0422479584813118,
        0.034338712692260742
      ]
    },
    {
      "bufferView": 2,
      "componentType": 5125,
      "count": 1584,
      "type": "SCALAR",
      "max": [
        297.0
      ],
      "min": [
        0.0
      ]
    }
  ],
  "asset": {
    "generator": "Plattar UnityGLTF (2019.2.17f1)",
    "version": "2.0"
  },
  "buffers": [
    {
      "uri": "rockplatform2.bin",
      "byteLength": 12296
    }
  ],
  "bufferViews": [
    {
      "buffer": 0,
      "byteLength": 3576
    },
    {
      "buffer": 0,
      "byteOffset": 3576,
      "byteLength": 2384
    },
    {
      "buffer": 0,
      "byteOffset": 5960,
      "byteLength": 6336
    }
  ],
  "materials": [
    {
      "alphaCutoff": 0.10000000149011612,
      "name": "rockplatform"
    }
  ],
  "meshes": [
    {
      "primitives": [
        {
          "attributes": {
            "POSITION": 0,
            "TEXCOORD_0": 1
          },
          "indices": 2,
          "material": 0
        }
      ],
      "name": "rockplatform2"
    }
  ],
  "nodes": [
    {
      "mesh": 0,
      "rotation": [
        0.0,
        0.0,
        0.0,
        -1.0
      ],
      "scale": [
        1.28477025,
        0.9375606,
        1.28477025
      ],
      "translation": [
        36.3942146,
        210.880646,
        -55.26581
      ],
      "name": "rockplatform2"
    }
  ],
  "scene": 0,
  "scenes": [
    {
      "nodes": [
        0
      ],
      "name": "rockplatform2"
    }
  ]
}