{
  "accessors": [
    {
      "bufferView": 0,
      "componentType": 5126,
      "count": 298,
      "type": "VEC3",
      "max": [
        5.886366844177246,
        4.644662857055664,
        6.169269561767578
      ],
      "min": [
        -4.894347190856934,
        -1.403618335723877,
        -6.008265495300293
      ]
    },
    {
      "bufferView": 1,
      "componentType": 5126,
      "count": 298,
      "type": "VEC2",
      "max": [
        0.9646499156951904,
        0.9741207361221313
      ],
      "min": [
        0.0422479584813118,
        0.03433871269226074
      ]
    },
    {
      "bufferView": 2,
      "componentType": 5125,
      "count": 1584,
      "type": "SCALAR",
      "max": [
        297.0
      ],
      "min": [
        0.0
      ]
    }
  ],
  "asset": {
    "generator": "Plattar UnityGLTF (2019.2.17f1)",
    "version": "2.0"
  },
  "buffers": [
    {
      "uri": "rockplatform2.bin",
      "byteLength": 12296
    }
  ],
  "bufferViews": [
    {
      "buffer": 0,
      "byteLength": 3576
    },
    {
      "buffer": 0,
      "byteOffset": 3576,
      "byteLength": 2384
    },
    {
      "buffer": 0,
      "byteOffset": 5960,
      "byteLength": 6336
    }
  ],
  "materials": [
    {
      "alphaCutoff": 0.10000000149011612,
      "name": "rockplatform",
      "pbrMetallicRoughness": {
        "baseColorTexture": {
          "index": 0
        }
      }
    }
  ],
  "meshes": [
    {
      "primitives": [
        {
          "attributes": {
            "POSITION": 0,
            "TEXCOORD_0": 1
          },
          "indices": 2,
          "material": 0
        }
      ],
      "name": "rockplatform2"
    }
  ],
  "nodes": [
    {
      "mesh": 0,
      "rotation": [
        0.0,
        0.0,
        0.0,
        -1.0
      ],
      "scale": [
        1.0,
        1.0,
        1.0
      ],
      "translation": [
        0.0,
        0.0,
        0.0
      ],
      "name": "rockplatform2",
      "translation_orig": [
        36.3942146,
        210.880646,
        -55.26581
      ],
      "scale_orig": [
        1.28477025,
        0.9375606,
        1.28477025
      ],
      "rotation_orig": [
        0.0,
        0.0,
        0.0,
        -1.0
      ]
    }
  ],
  "scene": 0,
  "scenes": [
    {
      "nodes": [
        0
      ],
      "name": "rockplatform2"
    }
  ],
  "images": [
    {
      "uri": "../textures/rockplatform.ktx2"
    }
  ],
  "textures": [
    {
      "source": 0
    }
  ]
}