{
  "accessors": [
    {
      "bufferView": 0,
      "componentType": 5126,
      "count": 972,
      "type": "VEC3",
      "max": [
        5.921819686889648,
        11.169428825378418,
        5.679628849029541
      ],
      "min": [
        -6.236715316772461,
        -1.430511474609375e-06,
        -5.882278919219971
      ]
    },
    {
      "bufferView": 1,
      "componentType": 5126,
      "count": 972,
      "type": "VEC2",
      "max": [
        0.991313099861145,
        0.9933043122291565
      ],
      "min": [
        0.005727887153625488,
        0.012032032012939453
      ]
    },
    {
      "bufferView": 2,
      "componentType": 5125,
      "count": 1626,
      "type": "SCALAR",
      "max": [
        709.0
      ],
      "min": [
        0.0
      ]
    },
    {
      "bufferView": 3,
      "componentType": 5125,
      "count": 960,
      "type": "SCALAR",
      "max": [
        909.0
      ],
      "min": [
        710.0
      ]
    },
    {
      "bufferView": 4,
      "componentType": 5125,
      "count": 144,
      "type": "SCALAR",
      "max": [
        971.0
      ],
      "min": [
        910.0
      ]
    }
  ],
  "asset": {
    "generator": "Plattar UnityGLTF (2019.2.17f1)",
    "version": "2.0"
  },
  "buffers": [
    {
      "uri": "Sender.bin",
      "byteLength": 30360
    }
  ],
  "bufferViews": [
    {
      "buffer": 0,
      "byteLength": 11664
    },
    {
      "buffer": 0,
      "byteOffset": 11664,
      "byteLength": 7776
    },
    {
      "buffer": 0,
      "byteOffset": 19440,
      "byteLength": 6504
    },
    {
      "buffer": 0,
      "byteOffset": 25944,
      "byteLength": 3840
    },
    {
      "buffer": 0,
      "byteOffset": 29784,
      "byteLength": 576
    }
  ],
  "materials": [
    {
      "alphaCutoff": 0.10000000149011612,
      "name": "hutmain",
      "pbrMetallicRoughness": {
        "baseColorTexture": {
          "index": 0
        }
      }
    },
    {
      "alphaCutoff": 0.10000000149011612,
      "name": "hutroof",
      "pbrMetallicRoughness": {
        "baseColorTexture": {
          "index": 1
        }
      }
    },
    {
      "alphaCutoff": 0.10000000149011612,
      "name": "hutChimney",
      "pbrMetallicRoughness": {
        "baseColorTexture": {
          "index": 2
        }
      }
    }
  ],
  "meshes": [
    {
      "primitives": [
        {
          "attributes": {
            "POSITION": 0,
            "TEXCOORD_0": 1
          },
          "indices": 2,
          "material": 0
        },
        {
          "attributes": {
            "POSITION": 0,
            "TEXCOORD_0": 1
          },
          "indices": 3,
          "material": 1
        },
        {
          "attributes": {
            "POSITION": 0,
            "TEXCOORD_0": 1
          },
          "indices": 4,
          "material": 2
        }
      ],
      "name": "Sender"
    }
  ],
  "nodes": [
    {
      "mesh": 0,
      "rotation": [
        0.0,
        0.0,
        0.0,
        -1.0
      ],
      "translation": [
        0.0,
        0.0,
        0.0
      ],
      "name": "Sender",
      "translation_orig": [
        332.6588,
        -4.87820625,
        42.15281
      ],
      "rotation_orig": [
        0.0,
        0.0,
        0.0,
        -1.0
      ]
    }
  ],
  "scene": 0,
  "scenes": [
    {
      "nodes": [
        0
      ],
      "name": "Sender"
    }
  ],
  "images": [
    {
      "uri": "../textures/hutmain.png"
    },
    {
      "uri": "../textures/hutroof.png"
    },
    {
      "uri": "../textures/hutChimney.png"
    }
  ],
  "textures": [
    {
      "source": 0
    },
    {
      "source": 1
    },
    {
      "source": 2
    }
  ]
}