{
  "accessors": [
    {
      "bufferView": 0,
      "componentType": 5126,
      "count": 32,
      "type": "VEC3",
      "max": [
        0.68647861480712891,
        1.2126986980438232,
        0.64788514375686646
      ],
      "min": [
        -0.62038266658782959,
        -0.041035227477550507,
        -0.52955281734466553
      ]
    },
    {
      "bufferView": 1,
      "componentType": 5126,
      "count": 32,
      "type": "VEC2",
      "max": [
        0.96610170602798462,
        0.95625793933868408
      ],
      "min": [
        0.011099245399236679,
        0.03034263476729393
      ]
    },
    {
      "bufferView": 2,
      "componentType": 5125,
      "count": 48,
      "type": "SCALAR",
      "max": [
        31.0
      ],
      "min": [
        0.0
      ]
    }
  ],
  "asset": {
    "generator": "Plattar UnityGLTF (2019.2.17f1)",
    "version": "2.0"
  },
  "buffers": [
    {
      "uri": "Shrub_02.bin",
      "byteLength": 832
    }
  ],
  "bufferViews": [
    {
      "buffer": 0,
      "byteLength": 384
    },
    {
      "buffer": 0,
      "byteOffset": 384,
      "byteLength": 256
    },
    {
      "buffer": 0,
      "byteOffset": 640,
      "byteLength": 192
    }
  ],
  "materials": [
    {
      "name": "shrub_01_d"
    }
  ],
  "meshes": [
    {
      "primitives": [
        {
          "attributes": {
            "POSITION": 0,
            "TEXCOORD_0": 1
          },
          "indices": 2,
          "material": 0
        }
      ],
      "name": "Shrub_02"
    }
  ],
  "nodes": [
    {
      "mesh": 0,
      "rotation": [
        0.0,
        0.0,
        0.0,
        -1.0
      ],
      "scale": [
        6.31683731,
        5.014213,
        5.014213
      ],
      "translation": [
        100.722404,
        22.2477818,
        -4.202839
      ],
      "name": "Shrub_02"
    }
  ],
  "scene": 0,
  "scenes": [
    {
      "nodes": [
        0
      ],
      "name": "Shrub_02"
    }
  ]
}