{
  "accessors": [
    {
      "bufferView": 0,
      "componentType": 5126,
      "count": 96,
      "type": "VEC3",
      "max": [
        0.600745677947998,
        1.550236463546753,
        0.6318710446357727
      ],
      "min": [
        -0.6651556491851807,
        -0.17253318428993225,
        -0.6309463381767273
      ]
    },
    {
      "bufferView": 1,
      "componentType": 5126,
      "count": 96,
      "type": "VEC2",
      "max": [
        0.9906798601150513,
        0.9758661389350891
      ],
      "min": [
        0.060248006135225296,
        0.0
      ]
    },
    {
      "bufferView": 2,
      "componentType": 5125,
      "count": 144,
      "type": "SCALAR",
      "max": [
        95.0
      ],
      "min": [
        0.0
      ]
    }
  ],
  "asset": {
    "generator": "Plattar UnityGLTF (2019.2.17f1)",
    "version": "2.0"
  },
  "buffers": [
    {
      "uri": "Shrub_04.bin",
      "byteLength": 2496
    }
  ],
  "bufferViews": [
    {
      "buffer": 0,
      "byteLength": 1152
    },
    {
      "buffer": 0,
      "byteOffset": 1152,
      "byteLength": 768
    },
    {
      "buffer": 0,
      "byteOffset": 1920,
      "byteLength": 576
    }
  ],
  "materials": [
    {
      "name": "shrub_04_d",
      "pbrMetallicRoughness": {
        "baseColorTexture": {
          "index": 0
        }
      }
    }
  ],
  "meshes": [
    {
      "primitives": [
        {
          "attributes": {
            "POSITION": 0,
            "TEXCOORD_0": 1
          },
          "indices": 2,
          "material": 0
        }
      ],
      "name": "Shrub_04"
    }
  ],
  "nodes": [
    {
      "mesh": 0,
      "rotation": [
        0.0,
        0.0,
        0.0,
        -1.0
      ],
      "scale": [
        1.0,
        1.0,
        1.0
      ],
      "translation": [
        0.0,
        0.0,
        0.0
      ],
      "name": "Shrub_04",
      "translation_orig": [
        102.06118,
        22.7777424,
        -2.173126
      ],
      "scale_orig": [
        2.62666059,
        2.626296,
        2.62666059
      ],
      "rotation_orig": [
        0.0,
        0.0,
        0.0,
        -1.0
      ]
    }
  ],
  "scene": 0,
  "scenes": [
    {
      "nodes": [
        0
      ],
      "name": "Shrub_04"
    }
  ],
  "images": [
    {
      "uri": "../textures/shrub_04_d.png"
    }
  ],
  "textures": [
    {
      "source": 0
    }
  ]
}