{
  "accessors": [
    {
      "bufferView": 0,
      "componentType": 5126,
      "count": 108,
      "type": "VEC3",
      "max": [
        0.23140917718410492,
        0.8707942962646484,
        0.2955784201622009
      ],
      "min": [
        -0.2311333864927292,
        -0.01847279630601406,
        -0.20185934007167816
      ]
    },
    {
      "bufferView": 1,
      "componentType": 5126,
      "count": 108,
      "type": "VEC2",
      "max": [
        1.0016810894012451,
        0.5593167543411255
      ],
      "min": [
        0.44216716289520264,
        -8.523063144139087e-09
      ]
    },
    {
      "bufferView": 2,
      "componentType": 5125,
      "count": 216,
      "type": "SCALAR",
      "max": [
        107.0
      ],
      "min": [
        0.0
      ]
    }
  ],
  "asset": {
    "generator": "Plattar UnityGLTF (2019.2.17f1)",
    "version": "2.0"
  },
  "buffers": [
    {
      "uri": "Weeds_02.bin",
      "byteLength": 3024
    }
  ],
  "bufferViews": [
    {
      "buffer": 0,
      "byteLength": 1296
    },
    {
      "buffer": 0,
      "byteOffset": 1296,
      "byteLength": 864
    },
    {
      "buffer": 0,
      "byteOffset": 2160,
      "byteLength": 864
    }
  ],
  "materials": [
    {
      "alphaCutoff": 0.6744904518127441,
      "name": "weeds_01_d",
      "pbrMetallicRoughness": {
        "baseColorTexture": {
          "index": 0
        }
      }
    }
  ],
  "meshes": [
    {
      "primitives": [
        {
          "attributes": {
            "POSITION": 0,
            "TEXCOORD_0": 1
          },
          "indices": 2,
          "material": 0
        }
      ],
      "name": "Weeds_02"
    }
  ],
  "nodes": [
    {
      "mesh": 0,
      "rotation": [
        0.0,
        0.0,
        0.0,
        -1.0
      ],
      "translation": [
        0.0,
        0.0,
        0.0
      ],
      "name": "Weeds_02",
      "translation_orig": [
        101.621223,
        22.0528278,
        -1.28367913
      ],
      "rotation_orig": [
        0.0,
        0.0,
        0.0,
        -1.0
      ]
    }
  ],
  "scene": 0,
  "scenes": [
    {
      "nodes": [
        0
      ],
      "name": "Weeds_02"
    }
  ],
  "images": [
    {
      "uri": "../textures/weeds_01_d.webp"
    }
  ],
  "textures": [
    {
      "source": 0
    }
  ]
}
