{
  "accessors": [
    {
      "bufferView": 0,
      "componentType": 5126,
      "count": 150,
      "type": "VEC3",
      "max": [
        0.2029913067817688,
        0.12539038062095642,
        0.19494934380054474
      ],
      "min": [
        -0.19789507985115051,
        -0.051527049392461777,
        -0.18295246362686157
      ]
    },
    {
      "bufferView": 1,
      "componentType": 5126,
      "count": 150,
      "type": "VEC2",
      "max": [
        0.66666680574417114,
        1.0
      ],
      "min": [
        0.30294018983840942,
        0.55931675434112549
      ]
    },
    {
      "bufferView": 2,
      "componentType": 5125,
      "count": 282,
      "type": "SCALAR",
      "max": [
        149.0
      ],
      "min": [
        0.0
      ]
    }
  ],
  "asset": {
    "generator": "Plattar UnityGLTF (2019.2.17f1)",
    "version": "2.0"
  },
  "buffers": [
    {
      "uri": "Weeds_03.bin",
      "byteLength": 4128
    }
  ],
  "bufferViews": [
    {
      "buffer": 0,
      "byteLength": 1800
    },
    {
      "buffer": 0,
      "byteOffset": 1800,
      "byteLength": 1200
    },
    {
      "buffer": 0,
      "byteOffset": 3000,
      "byteLength": 1128
    }
  ],
  "materials": [
    {
      "alphaCutoff": 0.67449045181274414,
      "name": "weeds_01_d"
    }
  ],
  "meshes": [
    {
      "primitives": [
        {
          "attributes": {
            "POSITION": 0,
            "TEXCOORD_0": 1
          },
          "indices": 2,
          "material": 0
        }
      ],
      "name": "Weeds_03"
    }
  ],
  "nodes": [
    {
      "mesh": 0,
      "rotation": [
        0.0,
        0.0,
        0.0,
        -1.0
      ],
      "translation": [
        101.166985,
        21.3069248,
        -1.28160954
      ],
      "name": "Weeds_03"
    }
  ],
  "scene": 0,
  "scenes": [
    {
      "nodes": [
        0
      ],
      "name": "Weeds_03"
    }
  ]
}