{
  "accessors": [
    {
      "bufferView": 0,
      "componentType": 5126,
      "count": 108,
      "type": "VEC3",
      "max": [
        0.23140917718410492,
        0.87079429626464844,
        0.29557842016220093
      ],
      "min": [
        -0.23113338649272919,
        -0.018472796306014061,
        -0.20185934007167816
      ]
    },
    {
      "bufferView": 1,
      "componentType": 5126,
      "count": 108,
      "type": "VEC2",
      "max": [
        1.0016810894012451,
        0.55931675434112549
      ],
      "min": [
        0.44216716289520264,
        -8.5230631441390869E-09
      ]
    },
    {
      "bufferView": 2,
      "componentType": 5125,
      "count": 216,
      "type": "SCALAR",
      "max": [
        107.0
      ],
      "min": [
        0.0
      ]
    }
  ],
  "asset": {
    "generator": "Plattar UnityGLTF (2019.2.17f1)",
    "version": "2.0"
  },
  "buffers": [
    {
      "uri": "Weeds_02.bin",
      "byteLength": 3024
    }
  ],
  "bufferViews": [
    {
      "buffer": 0,
      "byteLength": 1296
    },
    {
      "buffer": 0,
      "byteOffset": 1296,
      "byteLength": 864
    },
    {
      "buffer": 0,
      "byteOffset": 2160,
      "byteLength": 864
    }
  ],
  "materials": [
    {
      "alphaCutoff": 0.67449045181274414,
      "name": "weeds_01_d"
    }
  ],
  "meshes": [
    {
      "primitives": [
        {
          "attributes": {
            "POSITION": 0,
            "TEXCOORD_0": 1
          },
          "indices": 2,
          "material": 0
        }
      ],
      "name": "Weeds_02"
    }
  ],
  "nodes": [
    {
      "mesh": 0,
      "rotation": [
        0.0,
        0.0,
        0.0,
        -1.0
      ],
      "translation": [
        101.621223,
        22.0528278,
        -1.28367913
      ],
      "name": "Weeds_02"
    }
  ],
  "scene": 0,
  "scenes": [
    {
      "nodes": [
        0
      ],
      "name": "Weeds_02"
    }
  ]
}