{
  "accessors": [
    {
      "bufferView": 0,
      "componentType": 5126,
      "count": 150,
      "type": "VEC3",
      "max": [
        0.2029913067817688,
        0.12539038062095642,
        0.19494934380054474
      ],
      "min": [
        -0.1978950798511505,
        -0.05152704939246178,
        -0.18295246362686157
      ]
    },
    {
      "bufferView": 1,
      "componentType": 5126,
      "count": 150,
      "type": "VEC2",
      "max": [
        0.6666668057441711,
        1.0
      ],
      "min": [
        0.3029401898384094,
        0.5593167543411255
      ]
    },
    {
      "bufferView": 2,
      "componentType": 5125,
      "count": 282,
      "type": "SCALAR",
      "max": [
        149.0
      ],
      "min": [
        0.0
      ]
    }
  ],
  "asset": {
    "generator": "Plattar UnityGLTF (2019.2.17f1)",
    "version": "2.0"
  },
  "buffers": [
    {
      "uri": "Weeds_03.bin",
      "byteLength": 4128
    }
  ],
  "bufferViews": [
    {
      "buffer": 0,
      "byteLength": 1800
    },
    {
      "buffer": 0,
      "byteOffset": 1800,
      "byteLength": 1200
    },
    {
      "buffer": 0,
      "byteOffset": 3000,
      "byteLength": 1128
    }
  ],
  "materials": [
    {
      "alphaCutoff": 0.6744904518127441,
      "name": "weeds_01_d",
      "pbrMetallicRoughness": {
        "baseColorTexture": {
          "index": 0
        }
      }
    }
  ],
  "meshes": [
    {
      "primitives": [
        {
          "attributes": {
            "POSITION": 0,
            "TEXCOORD_0": 1
          },
          "indices": 2,
          "material": 0
        }
      ],
      "name": "Weeds_03"
    }
  ],
  "nodes": [
    {
      "mesh": 0,
      "rotation": [
        0.0,
        0.0,
        0.0,
        -1.0
      ],
      "translation": [
        0.0,
        0.0,
        0.0
      ],
      "name": "Weeds_03",
      "translation_orig": [
        101.166985,
        21.3069248,
        -1.28160954
      ],
      "rotation_orig": [
        0.0,
        0.0,
        0.0,
        -1.0
      ]
    }
  ],
  "scene": 0,
  "scenes": [
    {
      "nodes": [
        0
      ],
      "name": "Weeds_03"
    }
  ],
  "images": [
    {
      "uri": "../textures/weeds_01_d.webp"
    }
  ],
  "textures": [
    {
      "source": 0
    }
  ]
}
